<svg width="183" height="214" viewBox="0 0 183 214" fill="none" xmlns="http://www.w3.org/2000/svg">
<g filter="url(#filter0_d_1_50)">
<mask id="mask0_1_50" style="mask-type:alpha" maskUnits="userSpaceOnUse" x="4" y="0" width="175" height="206">
<path fill-rule="evenodd" clip-rule="evenodd" d="M56.2326 82.9215C95.4847 69.392 102.166 34.1485 97.155 1.74455C97.155 0.575335 98.1572 -0.259819 99.1594 0.0742426C136.741 18.4476 179 58.535 179 118.666C179 164.766 143.255 205.522 91.309 205.522C72.773 206.365 54.4841 201.011 39.3289 190.305C24.1738 179.599 13.0155 164.151 7.61527 146.399C2.215 128.647 2.88031 109.602 9.50617 92.2704C16.132 74.9385 28.3411 60.3068 44.2064 50.6845C45.2085 50.0164 46.5448 50.6845 46.5448 51.8537C47.0459 58.0339 48.7162 73.5677 55.5644 82.9215H56.2326Z" fill="white"/>
</mask>
<g mask="url(#mask0_1_50)">
<rect x="-10.6335" y="-7.31694" width="189.634" height="223.78" fill="url(#paint0_linear_1_50)"/>
</g>
</g>
<defs>
<filter id="filter0_d_1_50" x="0" y="1.52588e-05" width="183" height="213.608" filterUnits="userSpaceOnUse" color-interpolation-filters="sRGB">
<feFlood flood-opacity="0" result="BackgroundImageFix"/>
<feColorMatrix in="SourceAlpha" type="matrix" values="0 0 0 0 0 0 0 0 0 0 0 0 0 0 0 0 0 0 127 0" result="hardAlpha"/>
<feOffset dy="4"/>
<feGaussianBlur stdDeviation="2"/>
<feComposite in2="hardAlpha" operator="out"/>
<feColorMatrix type="matrix" values="0 0 0 0 0 0 0 0 0 0 0 0 0 0 0 0 0 0 0.25 0"/>
<feBlend mode="normal" in2="BackgroundImageFix" result="effect1_dropShadow_1_50"/>
<feBlend mode="normal" in="SourceGraphic" in2="effect1_dropShadow_1_50" result="shape"/>
</filter>
<linearGradient id="paint0_linear_1_50" x1="-10.6335" y1="216.464" x2="210.114" y2="29.3991" gradientUnits="userSpaceOnUse">
<stop stop-color="#377C26"/>
<stop offset="1" stop-color="#4BED5C"/>
</linearGradient>
</defs>
</svg>
